<svg width="100" height="100" viewBox="0 0 100 100">
  <g fill="none" transform="translate(9 14)">
    <path fill="#3F3F44" d="M0.7,47.3 L0.6,47.3 L0.6,72.6 L74.3,72.6 L74.3,39.4 L55.8,47.4 L55.8,39.4 L37.4,47.4 L37.4,39.4 L19,47.4 L19,39.4 L0.7,47.3 Z M50.9,57.2 L68,57.2 L68,63.8 L50.9,63.8 L50.9,57.2 Z M28.9,57.2 L46,57.2 L46,63.8 L28.9,63.8 L28.9,57.2 Z M24,57.2 L24,63.8 L7,63.8 L7,57.2 L24,57.2 Z"/>
    <polygon fill="#D64242" points="41 21.3 40.2 37.2 40.2 43.2 48 39.8 47.1 21.3"/>
    <polygon fill="#D64242" points="56.1 14.3 54.9 36.8 58.5 35.2 58.5 43.2 65.9 40 64.4 14.3"/>
    <path fill="#0028FF" fill-opacity=".321" d="M80,4.8 C79.8,2.6 76,0.9 71.4,0.9 C67.7,0.9 64.6,2 63.3,3.5 L62.7,3.5 C60.9,3.5 59.4,4.4 59.4,5.5 C59.4,6.4 60.4,7.2 61.7,7.4 C62,9.3 65.3,10.8 69.3,10.8 C71.3,10.8 73,10.4 74.4,9.9 C75.3,10.4 76.4,10.7 77.7,10.7 C80.5,10.7 82.7,9.3 82.7,7.6 C82.8,6.3 81.7,5.3 80,4.8 Z"/>
  </g>
</svg>
