<svg width="100" height="100" viewBox="0 0 100 100">
  <path fill="#8B572A" d="M86.7213343,11.9049523 L86.7213343,9.62029737 L86.5337057,9.56511247 L59.2613267,0.978341594 L59.2613267,0.978341594 L0.334887533,3.9252154 L0.07,3.9252154 L0.07,6.00016775 L0.202443767,6.07742661 L0.202443767,30.8885589 L0.699107892,31.3190011 L3.16035456,31.1975944 L3.16035456,26.2530271 L17.662947,38.206077 L17.662947,47.0356615 L18.4244987,47.6316584 L21.0071521,47.6316584 L21.1837438,29.7958978 L68.8303889,25.6901411 L83.2557225,32.3123294 L83.2557225,40.3913992 L84.4256424,40.9763591 L84.6132711,41.075692 L86.92,40.7225086 L86.7213343,11.9049523 Z M21.2830766,18.7258063 L55.4977164,16.3638925 L55.4977164,24.0897789 L21.2058178,26.7607282 L21.2830766,18.7258063 Z M58.4004422,21.2532749 L63.4333054,23.460671 L58.4004422,23.8028174 L58.4004422,21.2532749 Z M17.7843538,27.0366527 L10.4006138,27.6216127 L3.13828059,21.8603088 L3.13828059,9.33333587 L17.9057606,18.361586 L17.7843538,27.0366527 Z M13.9545215,30.4470797 L17.7402059,30.1159703 L17.7402059,33.4270644 L13.9545215,30.4470797 Z M83.2446855,28.7142737 L58.4004422,17.9421807 L58.4004422,16.1652268 L83.2115745,14.4544949 L83.2446855,28.7142737 Z" transform="translate(7 46)"/>
</svg>
