<svg xmlns="http://www.w3.org/2000/svg" width="100" height="100" viewBox="0 0 100 100">
  <path fill="#3F3F44" fill-rule="evenodd" d="M21.6989454,28.3389218 C21.6989454,26.976232 22.7829382,25.8860802 24.1379292,25.8860802 L25.3574211,25.8860802 L25.3574211,23.9101799 C25.3574211,22.4793556 26.4414139,21.4573383 27.7964049,21.4573383 L29.9643905,21.4573383 C31.3193816,21.4573383 32.4033744,22.4793556 32.4033744,23.9101799 L32.4033744,36.9920022 C32.4033744,38.2865575 31.3193816,39.3767093 29.9643905,39.3767093 L27.7964049,39.3767093 C26.4414139,39.3767093 25.3574211,38.2865575 25.3574211,36.9920022 L25.3574211,34.2666225 L24.1379292,34.2666225 C22.7829382,34.2666225 21.6989454,33.1764707 21.6989454,31.8137809 L21.6989454,28.3389218 Z M16.346731,2.10714286 C17.701722,2.10714286 18.7857148,3.19729471 18.7857148,4.55998453 L18.7857148,47.4847137 L21.9699436,47.4847137 C23.3249346,47.4847137 24.4089274,48.5748656 24.4089274,49.8694209 L24.4089274,53.8212214 C24.4089274,55.1157767 23.3249346,56.2059286 21.9699436,56.2059286 L6.45529663,56.2059286 C5.10030563,56.2059286 4.01631282,55.1157767 4.01631282,53.8212214 L4.01631282,49.8694209 C4.01631282,48.5748656 5.10030563,47.4847137 6.45529663,47.4847137 L8.01353628,47.4847137 L8.01353628,10.8964922 L6.45529663,10.8964922 C5.10030563,10.8964922 4.01631282,9.73820583 4.01631282,8.4436505 L4.01631282,4.49185004 C4.01631282,3.19729471 5.10030563,2.10714286 6.45529663,2.10714286 L16.346731,2.10714286 Z M24.1379292,10.8964922 C22.7829382,10.8964922 21.6989454,9.80634032 21.6989454,8.4436505 L21.6989454,4.55998453 C21.6989454,3.19729471 22.7829382,2.10714286 24.1379292,2.10714286 L38.4330843,2.10714286 C39.7880753,2.10714286 40.8720681,3.19729471 40.8720681,4.49185004 L40.8720681,14.9845616 C40.8720681,16.3472514 39.7880753,17.4374033 38.4330843,17.4374033 L34.7068591,17.4374033 C33.3518681,17.4374033 32.2678753,16.3472514 32.2678753,14.9845616 L32.2678753,10.8964922 L24.1379292,10.8964922 Z" transform="translate(28 21)"/>
</svg>
