<svg xmlns="http://www.w3.org/2000/svg" width="100" height="100" viewBox="0 0 100 100">
  <path fill="#3F3F44" fill-rule="evenodd" d="M2.9047619,64.5338571 L2.9047619,17.3918571 C2.9047619,14.9618571 4.8567619,13.0178571 7.2967619,13.0178571 L54.6327619,13.0178571 C57.0727619,13.0178571 59.0247619,14.9618571 59.0247619,17.3918571 L59.0247619,64.5338571 C59.0247619,66.9638571 57.0727619,68.9078571 54.6327619,68.9078571 L7.2967619,68.9078571 C4.8567619,68.9078571 2.9047619,66.9638571 2.9047619,64.5338571 Z M30.2937619,40.2338571 L30.2937619,43.3321071 C30.2937619,44.5471071 31.2697619,45.5191071 32.4897619,45.5191071 L33.5877619,45.5191071 L33.5877619,47.9491071 C33.5877619,49.1033571 34.5637619,50.0753571 35.7837619,50.0753571 L37.7357619,50.0753571 C38.9557619,50.0753571 39.9317619,49.1033571 39.9317619,47.9491071 L39.9317619,36.2851071 C39.9317619,35.0093571 38.9557619,34.0981071 37.7357619,34.0981071 L35.7837619,34.0981071 C34.5637619,34.0981071 33.5877619,35.0093571 33.5877619,36.2851071 L33.5877619,38.0468571 L32.4897619,38.0468571 C31.2697619,38.0468571 30.2937619,39.0188571 30.2937619,40.2338571 Z M25.4747619,16.8451071 L16.5687619,16.8451071 C15.3487619,16.8451071 14.3727619,17.8171071 14.3727619,18.9713571 L14.3727619,22.4948571 C14.3727619,23.6491071 15.3487619,24.6818571 16.5687619,24.6818571 L17.9717619,24.6818571 L17.9717619,57.3046071 L16.5687619,57.3046071 C15.3487619,57.3046071 14.3727619,58.2766071 14.3727619,59.4308571 L14.3727619,62.9543571 C14.3727619,64.1086071 15.3487619,65.0806071 16.5687619,65.0806071 L30.5377619,65.0806071 C31.7577619,65.0806071 32.7337619,64.1086071 32.7337619,62.9543571 L32.7337619,59.4308571 C32.7337619,58.2766071 31.7577619,57.3046071 30.5377619,57.3046071 L27.6707619,57.3046071 L27.6707619,19.0321071 C27.6707619,17.8171071 26.6947619,16.8451071 25.4747619,16.8451071 Z M32.4897619,24.6818571 L39.8097619,24.6818571 L39.8097619,28.3268571 C39.8097619,29.5418571 40.7857619,30.5138571 42.0057619,30.5138571 L45.3607619,30.5138571 C46.5807619,30.5138571 47.5567619,29.5418571 47.5567619,28.3268571 L47.5567619,18.9713571 C47.5567619,17.8171071 46.5807619,16.8451071 45.3607619,16.8451071 L32.4897619,16.8451071 C31.2697619,16.8451071 30.2937619,17.8171071 30.2937619,19.0321071 L30.2937619,22.4948571 C30.2937619,23.7098571 31.2697619,24.6818571 32.4897619,24.6818571 Z" transform="translate(20 10)"/>
</svg>
