<svg xmlns="http://www.w3.org/2000/svg" width="200" height="100" viewBox="0 0 200 100">
  <path fill="#3F3F44" fill-rule="evenodd" d="M1.02777778,27.8435294 L1.02777778,7.07411765 C1.02777778,6.00352941 1.88288889,5.14705882 2.95177778,5.14705882 L23.6882222,5.14705882 C24.7571111,5.14705882 25.6122222,6.00352941 25.6122222,7.07411765 L25.6122222,27.8435294 C25.6122222,28.9141176 24.7571111,29.7705882 23.6882222,29.7705882 L2.95177778,29.7705882 C1.88288889,29.7705882 1.02777778,28.9141176 1.02777778,27.8435294 Z M13.0260556,17.1376471 L13.0260556,18.5026471 C13.0260556,19.0379412 13.4536111,19.4661765 13.9880556,19.4661765 L14.4690556,19.4661765 L14.4690556,20.5367647 C14.4690556,21.0452941 14.8966111,21.4735294 15.4310556,21.4735294 L16.2861667,21.4735294 C16.8206111,21.4735294 17.2481667,21.0452941 17.2481667,20.5367647 L17.2481667,15.3979412 C17.2481667,14.8358824 16.8206111,14.4344118 16.2861667,14.4344118 L15.4310556,14.4344118 C14.8966111,14.4344118 14.4690556,14.8358824 14.4690556,15.3979412 L14.4690556,16.1741176 L13.9880556,16.1741176 C13.4536111,16.1741176 13.0260556,16.6023529 13.0260556,17.1376471 Z M10.915,6.83323529 L7.01355556,6.83323529 C6.47911111,6.83323529 6.05155556,7.26147059 6.05155556,7.77 L6.05155556,9.32235294 C6.05155556,9.83088235 6.47911111,10.2858824 7.01355556,10.2858824 L7.62816667,10.2858824 L7.62816667,24.6585294 L7.01355556,24.6585294 C6.47911111,24.6585294 6.05155556,25.0867647 6.05155556,25.5952941 L6.05155556,27.1476471 C6.05155556,27.6561765 6.47911111,28.0844118 7.01355556,28.0844118 L13.1329444,28.0844118 C13.6673889,28.0844118 14.0949444,27.6561765 14.0949444,27.1476471 L14.0949444,25.5952941 C14.0949444,25.0867647 13.6673889,24.6585294 13.1329444,24.6585294 L11.877,24.6585294 L11.877,7.79676471 C11.877,7.26147059 11.4494444,6.83323529 10.915,6.83323529 Z M13.9880556,10.2858824 L17.1947222,10.2858824 L17.1947222,11.8917647 C17.1947222,12.4270588 17.6222778,12.8552941 18.1567222,12.8552941 L19.6264444,12.8552941 C20.1608889,12.8552941 20.5884444,12.4270588 20.5884444,11.8917647 L20.5884444,7.77 C20.5884444,7.26147059 20.1608889,6.83323529 19.6264444,6.83323529 L13.9880556,6.83323529 C13.4536111,6.83323529 13.0260556,7.26147059 13.0260556,7.79676471 L13.0260556,9.32235294 C13.0260556,9.85764706 13.4536111,10.2858824 13.9880556,10.2858824 Z M50.0897778,29.7705882 L29.3533333,29.7705882 C28.2844444,29.7705882 27.4293333,28.9141176 27.4293333,27.8435294 L27.4293333,7.07411765 C27.4293333,6.00352941 28.2844444,5.14705882 29.3533333,5.14705882 L50.0897778,5.14705882 C51.1586667,5.14705882 52.0137778,6.00352941 52.0137778,7.07411765 L52.0137778,27.8435294 C52.0137778,28.9141176 51.1586667,29.7705882 50.0897778,29.7705882 Z M36.7553889,24.6317647 L35.8735556,24.6317647 L38.6793889,14.0597059 C38.7061111,13.8991176 38.7595556,13.7117647 38.7595556,13.5511765 C38.7595556,13.3905882 38.7328333,13.2567647 38.6793889,13.0961765 L37.37,7.74323529 C37.37,7.74323529 37.2898333,7.50235294 37.1027778,7.50235294 C36.9157222,7.50235294 36.8088333,7.93058824 36.8088333,7.93058824 L31.8919444,24.6317647 C31.2773333,24.6317647 30.8497778,25.06 30.8497778,25.5952941 L30.8497778,27.1208824 C30.8497778,27.6561765 31.2773333,28.0844118 31.8117778,28.0844118 L36.7553889,28.0844118 C37.2898333,28.0844118 37.7173889,27.6561765 37.7173889,27.1208824 L37.7173889,25.5952941 C37.7173889,25.06 37.2898333,24.6317647 36.7553889,24.6317647 Z M38.7061111,7.98411765 L41.1912778,18.7167647 L39.4008889,18.7167647 C38.9466111,18.7167647 38.5725,19.0111765 38.4656111,19.4394118 L38.1182222,20.7776471 C38.0915,20.8579412 38.0915,20.9382353 38.0915,21.0185294 C38.0915,21.5538235 38.4923333,21.9820588 39.0535,21.9820588 L42.18,21.9820588 L42.8747778,24.6317647 L42.0731111,24.6317647 C41.5386667,24.6317647 41.1111111,25.06 41.1111111,25.5952941 L41.1111111,27.1208824 C41.1111111,27.6561765 41.5386667,28.0844118 42.0731111,28.0844118 L47.6580556,28.0844118 C48.1657778,28.0844118 48.5933333,27.6561765 48.5933333,27.1208824 L48.5933333,25.5952941 C48.5933333,25.06 48.1657778,24.6317647 47.6580556,24.6317647 L42.6342778,7.47558824 C42.5006667,7.07411765 42.1265556,6.80647059 41.699,6.80647059 L39.6413889,6.80647059 C39.1069444,6.80647059 38.6793889,7.26147059 38.6793889,7.77 C38.6793889,7.85029412 38.6793889,7.90382353 38.7061111,7.98411765 Z M76.4913333,29.7705882 L55.7548889,29.7705882 C54.686,29.7705882 53.8308889,28.9141176 53.8308889,27.8435294 L53.8308889,7.07411765 C53.8308889,6.00352941 54.686,5.14705882 55.7548889,5.14705882 L76.4913333,5.14705882 C77.5602222,5.14705882 78.4153333,6.00352941 78.4153333,7.07411765 L78.4153333,27.8435294 C78.4153333,28.9141176 77.5602222,29.7705882 76.4913333,29.7705882 Z M63.7982778,6.80647059 L59.8701111,6.80647059 C59.3356667,6.80647059 58.9081111,7.23470588 58.9081111,7.74323529 L58.9081111,9.29558824 C58.9081111,9.83088235 59.3356667,10.2591176 59.8701111,10.2591176 L60.4847222,10.2591176 L60.4847222,24.6317647 L59.8701111,24.6317647 C59.3356667,24.6317647 58.9081111,25.06 58.9081111,25.5952941 L58.9081111,27.1208824 C58.9081111,27.6561765 59.3356667,28.0844118 59.8701111,28.0844118 L63.7982778,28.0844118 C64.3327222,28.0844118 64.7602778,27.6561765 64.7602778,27.1208824 L64.7602778,7.77 C64.7602778,7.23470588 64.3327222,6.80647059 63.7982778,6.80647059 Z M66.8713333,28.0844118 L67.8333333,28.0844118 C71.0667222,28.0844118 73.5518889,26.7194118 73.5518889,22.33 C73.5518889,19.3858824 72.2692222,17.4588235 69.8909444,17.2447059 C72.1088889,16.7361765 73.2846667,14.7555882 73.2846667,11.9720588 C73.2846667,8.03764706 70.9598333,6.80647059 68.1272778,6.80647059 L66.8713333,6.80647059 C66.3368889,6.80647059 65.9093333,7.23470588 65.9093333,7.77 L65.9093333,9.135 C65.9093333,9.61676471 66.2834444,10.045 66.7644444,10.0985294 C68.0738333,10.2323529 68.8487778,10.8211765 68.8487778,12.6679412 C68.8487778,14.7288235 68.0738333,15.4782353 66.6308333,15.5852941 C66.23,15.6388235 65.9093333,15.96 65.9093333,16.3614706 L65.9093333,17.9673529 C65.9093333,18.4758824 66.2834444,18.8505882 66.7644444,18.8773529 C68.3945,18.9576471 69.1427222,19.7873529 69.1427222,21.9285294 C69.1427222,23.8555882 68.1272778,24.7388235 66.7377222,24.8191176 C66.2834444,24.8458824 65.9093333,25.2205882 65.9093333,25.6755882 L65.9093333,27.1208824 C65.9093333,27.6561765 66.3368889,28.0844118 66.8713333,28.0844118 Z M102.892889,29.8241176 L82.1564444,29.8241176 C81.0875556,29.8241176 80.2324444,28.9676471 80.2324444,27.8970588 L80.2324444,7.12764706 C80.2324444,6.05705882 81.0875556,5.20058824 82.1564444,5.20058824 L102.892889,5.20058824 C103.961778,5.20058824 104.816889,6.05705882 104.816889,7.12764706 L104.816889,27.8970588 C104.816889,28.9676471 103.961778,29.8241176 102.892889,29.8241176 Z M89.7455556,6.83323529 L85.6570556,6.83323529 C85.1226111,6.83323529 84.6950556,7.26147059 84.6950556,7.77 L84.6950556,9.32235294 C84.6950556,9.83088235 85.1226111,10.2858824 85.6570556,10.2858824 L86.2716667,10.2858824 L86.2716667,24.6585294 L85.6570556,24.6585294 C85.1226111,24.6585294 84.6950556,25.0867647 84.6950556,25.5952941 L84.6950556,27.1476471 C84.6950556,27.6561765 85.1226111,28.0844118 85.6570556,28.0844118 L91.3756111,28.0844118 C91.9100556,28.0844118 92.3376111,27.6561765 92.3376111,27.1476471 L92.3376111,25.5952941 C92.3376111,25.0867647 91.9100556,24.6585294 91.3756111,24.6585294 L90.7075556,24.6585294 L90.7075556,7.79676471 C90.7075556,7.28823529 90.28,6.83323529 89.7455556,6.83323529 Z M91.8298889,16.7094118 L91.8566111,18.5026471 C91.8566111,19.1182353 92.2574444,19.3858824 92.7651667,19.7070588 C93.2461667,20.0282353 93.4599444,20.7241176 93.7271667,21.6876471 L95.0632778,26.7997059 C95.2503333,27.5758824 95.9183889,28.0844118 96.7467778,28.0844118 L99.6060556,28.0844118 C100.1405,28.0844118 100.568056,27.6561765 100.568056,27.1476471 L100.568056,25.5952941 C100.568056,25.0867647 100.1405,24.6585294 99.6060556,24.6585294 L99.1250556,24.6585294 L98.3233889,20.9114706 C97.8156667,18.6097059 97.1743333,18.0744118 95.2503333,17.8870588 L95.2503333,17.7532353 C97.7889444,17.2714706 99.1250556,15.7726471 99.1250556,12.4270588 C99.1250556,8.49264706 97.3079444,6.83323529 93.9142222,6.83323529 L92.8186111,6.83323529 C92.2841667,6.83323529 91.8566111,7.28823529 91.8566111,7.79676471 L91.8566111,9.32235294 C91.8566111,9.83088235 92.2307222,10.2591176 92.7384444,10.3126471 C94.0478333,10.4464706 94.6891667,11.2494118 94.6891667,13.0426471 C94.6891667,15.7726471 93.0323889,16.1205882 92.2574444,16.1741176 C91.9100556,16.2008824 91.8298889,16.5488235 91.8298889,16.7094118 Z M106.634,27.8435294 L106.634,7.07411765 C106.634,6.00352941 107.489111,5.14705882 108.558,5.14705882 L129.294444,5.14705882 C130.363333,5.14705882 131.218444,6.00352941 131.218444,7.07411765 L131.218444,27.8435294 C131.218444,28.9141176 130.363333,29.7705882 129.294444,29.7705882 L108.558,29.7705882 C107.489111,29.7705882 106.634,28.9141176 106.634,27.8435294 Z M116.628111,10.2858824 L116.628111,24.6585294 L115.879889,24.6585294 C115.345444,24.6585294 114.917889,25.0867647 114.917889,25.5952941 L114.917889,27.1476471 C114.917889,27.6561765 115.345444,28.0844118 115.879889,28.0844118 L121.945833,28.0844118 C122.480278,28.0844118 122.907833,27.6561765 122.907833,27.1476471 L122.907833,25.5952941 C122.907833,25.0867647 122.480278,24.6585294 121.945833,24.6585294 L121.197611,24.6585294 L121.197611,10.2858824 L121.945833,10.2858824 C122.480278,10.2858824 122.907833,9.83088235 122.907833,9.32235294 L122.907833,7.77 C122.907833,7.26147059 122.480278,6.83323529 121.945833,6.83323529 L115.879889,6.83323529 C115.345444,6.83323529 114.917889,7.26147059 114.917889,7.77 L114.917889,9.32235294 C114.917889,9.83088235 115.345444,10.2858824 115.879889,10.2858824 L116.628111,10.2858824 Z M133.035556,27.8435294 L133.035556,7.07411765 C133.035556,6.00352941 133.890667,5.14705882 134.959556,5.14705882 L155.696,5.14705882 C156.764889,5.14705882 157.62,6.00352941 157.62,7.07411765 L157.62,27.8435294 C157.62,28.9141176 156.764889,29.7705882 155.696,29.7705882 L134.959556,29.7705882 C133.890667,29.7705882 133.035556,28.9141176 133.035556,27.8435294 Z M143.510667,24.6585294 L142.896056,24.6585294 L142.896056,10.2858824 L143.510667,10.2858824 C144.045111,10.2858824 144.472667,9.83088235 144.472667,9.32235294 L144.472667,7.77 C144.472667,7.26147059 144.045111,6.83323529 143.510667,6.83323529 L138.032611,6.83323529 C137.498167,6.83323529 137.070611,7.26147059 137.070611,7.77 L137.070611,9.32235294 C137.070611,9.83088235 137.498167,10.2858824 138.032611,10.2858824 L138.647222,10.2858824 L138.647222,24.6585294 L138.032611,24.6585294 C137.498167,24.6585294 137.070611,25.0867647 137.070611,25.5952941 L137.070611,27.1476471 C137.070611,27.6561765 137.498167,28.0844118 138.032611,28.0844118 L143.510667,28.0844118 C144.045111,28.0844118 144.472667,27.6561765 144.472667,27.1476471 L144.472667,25.5952941 C144.472667,25.0867647 144.045111,24.6585294 143.510667,24.6585294 Z M144.045111,15.4514706 L144.045111,18.6097059 C144.045111,18.9844118 144.152,19.2788235 144.339056,19.6 L147.385389,24.6585294 L147.064722,24.6585294 C146.530278,24.6585294 146.102722,25.0867647 146.102722,25.5952941 L146.102722,27.1476471 C146.102722,27.6561765 146.530278,28.0844118 147.064722,28.0844118 L152.596222,28.0844118 C153.130667,28.0844118 153.558222,27.6561765 153.558222,27.1476471 L153.558222,25.5952941 C153.558222,25.0867647 153.130667,24.6585294 152.596222,24.6585294 L147.385389,16.6826471 L152.035056,10.2858824 L152.329,10.2858824 C152.836722,10.2858824 153.291,9.83088235 153.291,9.32235294 L153.291,7.77 C153.291,7.26147059 152.836722,6.83323529 152.329,6.83323529 L147.064722,6.83323529 C146.530278,6.83323529 146.102722,7.26147059 146.102722,7.77 L146.102722,9.32235294 C146.102722,9.83088235 146.530278,10.2858824 147.064722,10.2858824 L147.251778,10.2858824 L144.419222,14.3273529 C144.178722,14.6752941 144.045111,15.0232353 144.045111,15.4514706 Z M159.437111,27.8702941 L159.437111,7.10088235 C159.437111,6.03029412 160.292222,5.17382353 161.361111,5.17382353 L182.097556,5.17382353 C183.166444,5.17382353 184.021556,6.03029412 184.021556,7.10088235 L184.021556,27.8702941 C184.021556,28.9408824 183.166444,29.7973529 182.097556,29.7973529 L161.361111,29.7973529 C160.292222,29.7973529 159.437111,28.9408824 159.437111,27.8702941 Z M170.580278,6.43176471 C167.026222,6.48529412 165.209111,8.62647059 165.209111,13.1229412 C165.209111,16.7629412 167.346889,17.9941176 169.538111,18.9308824 C173.199056,20.51 173.893833,21.0185294 173.893833,22.6779412 C173.893833,24.5514706 172.2905,24.6317647 172.2905,25.7023529 L172.2905,27.6026471 C172.2905,28.0844118 172.664611,28.4055882 173.118889,28.4055882 C176.379,28.1914706 178.436611,26.2376471 178.436611,21.9017647 C178.436611,18.0476471 176.913444,16.9770588 174.000722,15.5852941 C170.259611,13.7652941 169.564833,13.3370588 169.564833,11.8382353 C169.564833,10.3126471 171.168167,10.2323529 171.168167,9.18852941 L171.168167,7.23470588 C171.168167,6.48529412 170.580278,6.45852941 170.580278,6.43176471 Z M170.313056,24.6317647 C169.324333,24.1232353 169.110556,23.24 168.950222,22.0088235 C168.870056,21.4467647 168.602833,20.965 167.988222,20.965 L165.930611,20.965 C165.476333,20.965 165.022056,21.3932353 165.022056,21.9285294 L165.022056,27.1208824 C165.022056,27.6561765 165.476333,28.0844118 165.930611,28.0844118 L167.747722,28.0844118 C168.282167,28.0844118 168.656278,27.6561765 168.656278,27.1208824 L168.656278,26.3179412 L168.763167,26.3179412 C169.137278,27.0941176 169.832056,27.9505882 170.339778,27.9505882 C170.740611,27.9505882 171.168167,27.4688235 171.168167,27.0405882 L171.168167,25.7023529 C171.168167,25.1670588 170.794056,24.8726471 170.313056,24.6317647 Z M174.561889,7.71647059 L174.508444,8.43911765 C174.241222,7.82352941 173.626611,7.10088235 173.145611,7.10088235 C172.744778,7.10088235 172.2905,7.52911765 172.2905,7.98411765 L172.2905,9.10823529 C172.2905,9.64352941 172.637889,9.93794118 173.118889,10.2055882 C173.893833,10.6338235 174.241222,11.41 174.348111,12.3735294 C174.428278,12.9891176 174.802389,13.3905882 175.363556,13.3905882 L177.127222,13.3905882 C177.661667,13.3905882 178.089222,12.9623529 178.089222,12.4270588 L178.089222,7.71647059 C178.089222,7.18117647 177.661667,6.80647059 177.127222,6.80647059 L175.470444,6.80647059 C174.962722,6.80647059 174.561889,7.18117647 174.561889,7.71647059 Z" transform="translate(8 33)"/>
</svg>
