<svg xmlns="http://www.w3.org/2000/svg" width="200" height="100" viewBox="0 0 200 100">
  <path fill="#3F3F44" fill-rule="evenodd" d="M19.5855638,22.3497935 C19.5855638,21.4636858 20.2804642,20.7547997 21.1490898,20.7547997 L21.9308528,20.7547997 L21.9308528,19.4699436 C21.9308528,18.5395306 22.6257533,17.8749499 23.4943789,17.8749499 L24.8841798,17.8749499 C25.7528054,17.8749499 26.4477058,18.5395306 26.4477058,19.4699436 L26.4477058,27.976577 C26.4477058,28.8183793 25.7528054,29.5272654 24.8841798,29.5272654 L23.4943789,29.5272654 C22.6257533,29.5272654 21.9308528,28.8183793 21.9308528,27.976577 L21.9308528,26.2043617 L21.1490898,26.2043617 C20.2804642,26.2043617 19.5855638,25.4954756 19.5855638,24.609368 L19.5855638,22.3497935 Z M16.1544927,5.29222135 C17.0231183,5.29222135 17.7180188,6.00110746 17.7180188,6.88721511 L17.7180188,34.7996059 L19.7592889,34.7996059 C20.6279145,34.7996059 21.3228149,35.508492 21.3228149,36.3502943 L21.3228149,38.9200064 C21.3228149,39.7618087 20.6279145,40.4706948 19.7592889,40.4706948 L9.81352604,40.4706948 C8.94490046,40.4706948 8.25,39.7618087 8.25,38.9200064 L8.25,36.3502943 C8.25,35.508492 8.94490046,34.7996059 9.81352604,34.7996059 L10.8124454,34.7996059 L10.8124454,11.0076156 L9.81352604,11.0076156 C8.94490046,11.0076156 8.25,10.2544242 8.25,9.41262189 L8.25,6.84290972 C8.25,6.00110746 8.94490046,5.29222135 9.81352604,5.29222135 L16.1544927,5.29222135 Z M21.1490898,11.0076156 C20.2804642,11.0076156 19.5855638,10.2987295 19.5855638,9.41262189 L19.5855638,6.88721511 C19.5855638,6.00110746 20.2804642,5.29222135 21.1490898,5.29222135 L30.3130896,5.29222135 C31.1817152,5.29222135 31.8766157,6.00110746 31.8766157,6.84290972 L31.8766157,13.6659386 C31.8766157,14.5520462 31.1817152,15.2609323 30.3130896,15.2609323 L27.9243693,15.2609323 C27.0557437,15.2609323 26.3608433,14.5520462 26.3608433,13.6659386 L26.3608433,11.0076156 L21.1490898,11.0076156 Z M36.0894497,34.7553005 L37.5226819,34.7553005 C38.3913075,34.7553005 39.0862079,35.4641866 39.0862079,36.3502943 L39.0862079,38.875701 C39.0862079,39.7618087 38.3913075,40.4706948 37.5226819,40.4706948 L29.4878953,40.4706948 C28.6192698,40.4706948 27.9243693,39.7618087 27.9243693,38.875701 L27.9243693,36.3502943 C27.9243693,35.4641866 28.6192698,34.7553005 29.6181892,34.7553005 L37.6095445,7.10874202 C37.6095445,7.10874202 37.7832696,6.3998559 38.0872885,6.3998559 C38.3913075,6.3998559 38.5216013,6.79860434 38.5216013,6.79860434 L40.649734,15.6596808 C40.7365965,15.9255131 40.7800278,16.14704 40.7800278,16.4128723 C40.7800278,16.6787046 40.6931653,16.9888422 40.649734,17.2546745 L36.0894497,34.7553005 Z M44.7322742,24.963811 L40.6931653,7.19735278 C40.649734,7.06443664 40.649734,6.97582587 40.649734,6.84290972 C40.649734,6.00110746 41.3446344,5.24791597 42.21326,5.24791597 L45.5574685,5.24791597 C46.2523689,5.24791597 46.8604069,5.69096979 47.0775632,6.35555052 L55.2426437,34.7553005 C56.067838,34.7553005 56.7627384,35.4641866 56.7627384,36.3502943 L56.7627384,38.875701 C56.7627384,39.7618087 56.067838,40.4706948 55.2426437,40.4706948 L46.1655064,40.4706948 C45.2968808,40.4706948 44.6019804,39.7618087 44.6019804,38.875701 L44.6019804,36.3502943 C44.6019804,35.4641866 45.2968808,34.7553005 46.1655064,34.7553005 L47.4684448,34.7553005 L46.3392315,30.3690677 L41.2577719,30.3690677 C40.345715,30.3690677 39.6942458,29.6601815 39.6942458,28.7740739 C39.6942458,28.6411578 39.6942458,28.5082416 39.7376771,28.3753255 L40.3022838,26.1600564 C40.4760089,25.4511702 41.0840468,24.963811 41.8223785,24.963811 L44.7322742,24.963811 Z M66.6361158,5.24791597 L60.2517178,5.24791597 C59.3830922,5.24791597 58.6881918,5.95680208 58.6881918,6.79860434 L58.6881918,9.36831651 C58.6881918,10.2544242 59.3830922,10.9633103 60.2517178,10.9633103 L61.2506372,10.9633103 L61.2506372,34.7553005 L60.2517178,34.7553005 C59.3830922,34.7553005 58.6881918,35.4641866 58.6881918,36.3502943 L58.6881918,38.875701 C58.6881918,39.7618087 59.3830922,40.4706948 60.2517178,40.4706948 L66.6361158,40.4706948 C67.5047414,40.4706948 68.1996418,39.7618087 68.1996418,38.875701 L68.1996418,6.84290972 C68.1996418,5.95680208 67.5047414,5.24791597 66.6361158,5.24791597 Z M71.6307129,40.4706948 L73.1942389,40.4706948 C78.4494236,40.4706948 82.4885326,38.2111203 82.4885326,30.9450376 C82.4885326,26.0714456 80.4038312,22.8814581 76.5384474,22.527015 C80.1432435,21.6852128 82.0542198,18.4066145 82.0542198,13.7988547 C82.0542198,7.28596355 78.2756985,5.24791597 73.671983,5.24791597 L71.6307129,5.24791597 C70.7620873,5.24791597 70.0671868,5.95680208 70.0671868,6.84290972 L70.0671868,9.10248422 C70.0671868,9.89998109 70.6752247,10.6088672 71.4569877,10.697478 C73.5851204,10.9190049 74.8446275,11.8937233 74.8446275,14.9507947 C74.8446275,18.3623091 73.5851204,19.6028598 71.2398313,19.7800813 C70.5883622,19.8686921 70.0671868,20.4003567 70.0671868,21.0649374 L70.0671868,23.7232603 C70.0671868,24.5650626 70.6752247,25.1853379 71.4569877,25.2296433 C74.1062957,25.3625595 75.3223716,26.7360263 75.3223716,30.2804569 C75.3223716,33.4704444 73.671983,34.932522 71.4135565,35.0654382 C70.6752247,35.1097436 70.0671868,35.7300189 70.0671868,36.4832104 L70.0671868,38.875701 C70.0671868,39.7618087 70.7620873,40.4706948 71.6307129,40.4706948 Z M92.521158,5.29222135 C93.3897835,5.29222135 94.084684,6.04541285 94.084684,6.88721511 L94.084684,34.7996059 L95.170466,34.7996059 C96.0390915,34.7996059 96.733992,35.508492 96.733992,36.3502943 L96.733992,38.9200064 C96.733992,39.7618087 96.0390915,40.4706948 95.170466,40.4706948 L85.8761723,40.4706948 C85.0075467,40.4706948 84.3126463,39.7618087 84.3126463,38.9200064 L84.3126463,36.3502943 C84.3126463,35.508492 85.0075467,34.7996059 85.8761723,34.7996059 L86.8750917,34.7996059 L86.8750917,11.0076156 L85.8761723,11.0076156 C85.0075467,11.0076156 84.3126463,10.2544242 84.3126463,9.41262189 L84.3126463,6.84290972 C84.3126463,6.00110746 85.0075467,5.29222135 85.8761723,5.29222135 L92.521158,5.29222135 Z M95.952229,24.609368 L95.9087977,21.6409074 C95.9087977,21.3750751 96.0390915,20.7991051 96.6036982,20.7547997 C97.8632053,20.666189 100.555945,20.090219 100.555945,15.57107 C100.555945,12.6026094 99.5135938,11.2734479 97.3854612,11.051921 C96.5602669,10.9633103 95.952229,10.2544242 95.952229,9.41262189 L95.952229,6.88721511 C95.952229,6.04541285 96.6471294,5.29222135 97.515755,5.29222135 L99.2964375,5.29222135 C104.81221,5.29222135 107.765537,8.03915504 107.765537,14.5520462 C107.765537,20.090219 105.593973,22.5713204 101.468001,23.3688173 L101.468001,23.5903442 C104.595053,23.9004819 105.637404,24.7865895 106.462598,28.5968524 L107.765537,34.7996059 L108.5473,34.7996059 C109.415925,34.7996059 110.110826,35.508492 110.110826,36.3502943 L110.110826,38.9200064 C110.110826,39.7618087 109.415925,40.4706948 108.5473,40.4706948 L103.900153,40.4706948 C102.553783,40.4706948 101.468001,39.6288925 101.163982,38.3440365 L98.9924185,29.8817085 C98.5581057,28.2867147 98.2106555,27.1347748 97.4288925,26.6031102 C96.6036982,26.0714456 95.952229,25.6283918 95.952229,24.609368 Z M114.135458,34.7996059 L112.919382,34.7996059 C112.050756,34.7996059 111.355856,35.508492 111.355856,36.3502943 L111.355856,38.9200064 C111.355856,39.7618087 112.050756,40.4706948 112.919382,40.4706948 L122.778282,40.4706948 C123.646908,40.4706948 124.341808,39.7618087 124.341808,38.9200064 L124.341808,36.3502943 C124.341808,35.508492 123.646908,34.7996059 122.778282,34.7996059 L121.562206,34.7996059 L121.562206,11.0076156 L122.778282,11.0076156 C123.646908,11.0076156 124.341808,10.2544242 124.341808,9.41262189 L124.341808,6.84290972 C124.341808,6.00110746 123.646908,5.29222135 122.778282,5.29222135 L112.919382,5.29222135 C112.050756,5.29222135 111.355856,6.00110746 111.355856,6.84290972 L111.355856,9.41262189 C111.355856,10.2544242 112.050756,11.0076156 112.919382,11.0076156 L114.135458,11.0076156 L114.135458,34.7996059 Z M134.750838,34.7996059 L135.749757,34.7996059 C136.618383,34.7996059 137.313283,35.508492 137.313283,36.3502943 L137.313283,38.9200064 C137.313283,39.7618087 136.618383,40.4706948 135.749757,40.4706948 L126.846345,40.4706948 C125.97772,40.4706948 125.282819,39.7618087 125.282819,38.9200064 L125.282819,36.3502943 C125.282819,35.508492 125.97772,34.7996059 126.846345,34.7996059 L127.845265,34.7996059 L127.845265,11.0076156 L126.846345,11.0076156 C125.97772,11.0076156 125.282819,10.2544242 125.282819,9.41262189 L125.282819,6.84290972 C125.282819,6.00110746 125.97772,5.29222135 126.846345,5.29222135 L135.749757,5.29222135 C136.618383,5.29222135 137.313283,6.00110746 137.313283,6.84290972 L137.313283,9.41262189 C137.313283,10.2544242 136.618383,11.0076156 135.749757,11.0076156 L134.750838,11.0076156 L134.750838,34.7996059 Z M136.618383,19.5585544 C136.618383,18.8496683 136.835539,18.2736983 137.226421,17.6977284 L141.830136,11.0076156 L141.526118,11.0076156 C140.657492,11.0076156 139.962591,10.2544242 139.962591,9.41262189 L139.962591,6.84290972 C139.962591,6.00110746 140.657492,5.29222135 141.526118,5.29222135 L150.082079,5.29222135 C150.907274,5.29222135 151.645605,6.00110746 151.645605,6.84290972 L151.645605,9.41262189 C151.645605,10.2544242 150.907274,11.0076156 150.082079,11.0076156 L149.604335,11.0076156 L142.047293,21.596602 L150.516392,34.7996059 C151.385018,34.7996059 152.079918,35.508492 152.079918,36.3502943 L152.079918,38.9200064 C152.079918,39.7618087 151.385018,40.4706948 150.516392,40.4706948 L141.526118,40.4706948 C140.657492,40.4706948 139.962591,39.7618087 139.962591,38.9200064 L139.962591,36.3502943 C139.962591,35.508492 140.657492,34.7996059 141.526118,34.7996059 L142.047293,34.7996059 L137.096127,26.4258886 C136.792108,25.8942241 136.618383,25.4068649 136.618383,24.7865895 L136.618383,19.5585544 Z M162.011204,4.62764062 C162.011204,4.671946 162.966692,4.71625138 162.966692,5.95680208 L162.966692,9.19109498 C162.966692,10.9190049 160.360815,11.051921 160.360815,13.5773278 C160.360815,16.0584292 161.490029,16.7673153 167.570408,19.7800813 C172.304417,22.0839612 174.78,23.8561765 174.78,30.2361515 C174.78,37.4136234 171.435792,40.6479163 166.137176,41.0023594 C165.398844,41.0023594 164.790806,40.4706948 164.790806,39.6731979 L164.790806,36.5275158 C164.790806,34.7553005 167.396683,34.6223844 167.396683,31.5210076 C167.396683,28.7740739 166.267469,27.9322716 160.317384,25.3182541 C156.756019,23.7675657 153.281517,21.7295181 153.281517,15.7039862 C153.281517,8.26068195 156.234844,4.71625138 162.011204,4.62764062 Z M161.576891,34.7553005 C162.358654,35.1540489 162.966692,35.6414081 162.966692,36.5275158 L162.966692,38.7427849 C162.966692,39.451671 162.271792,40.2491679 161.620323,40.2491679 C160.795128,40.2491679 159.665915,38.8313957 159.057877,37.5465396 L158.884152,37.5465396 L158.884152,38.875701 C158.884152,39.7618087 158.276114,40.4706948 157.407488,40.4706948 L154.454162,40.4706948 C153.71583,40.4706948 152.977498,39.7618087 152.977498,38.875701 L152.977498,30.2804569 C152.977498,29.3943493 153.71583,28.6854631 154.454162,28.6854631 L157.79837,28.6854631 C158.797289,28.6854631 159.231602,29.48296 159.361896,30.413373 C159.622484,32.4514206 159.969934,33.9134982 161.576891,34.7553005 Z M168.395602,7.95054428 L168.482465,6.75429896 C168.482465,5.86819132 169.133934,5.24791597 169.959128,5.24791597 L172.651867,5.24791597 C173.520493,5.24791597 174.215393,5.86819132 174.215393,6.75429896 L174.215393,14.5520462 C174.215393,15.4381539 173.520493,16.14704 172.651867,16.14704 L169.785403,16.14704 C168.873346,16.14704 168.265308,15.4824592 168.135014,14.4634355 C167.961289,12.8684417 167.396683,11.5835856 166.137176,10.8746995 C165.355413,10.4316457 164.790806,9.94428648 164.790806,9.05817883 L164.790806,7.19735278 C164.790806,6.44416128 165.529138,5.73527517 166.180607,5.73527517 C166.96237,5.73527517 167.961289,6.93152049 168.395602,7.95054428 Z" transform="translate(9 28)"/>
</svg>
